<svg xmlns="http://www.w3.org/2000/svg" width="400" height="100" viewBox="0 0 400 100">
  <g id="グループ_8" data-name="グループ 8" transform="translate(-757 -561)">
    <g id="長方形_8" data-name="長方形 8" transform="translate(757 561)" fill="#fdd551" stroke="#707070" stroke-width="1">
      <rect width="400" height="100" rx="14" stroke="none"/>
      <rect x="0.5" y="0.5" width="399" height="99" rx="13.5" fill="none"/>
    </g>
    <g id="楕円形_2" data-name="楕円形 2" transform="translate(764 609.806)" fill="#fff" stroke="#707070" stroke-width="1">
      <circle cx="5.5" cy="5.5" r="5.5" stroke="none"/>
      <circle cx="5.5" cy="5.5" r="5" fill="none"/>
    </g>
    <g id="合体_2" data-name="合体 2" transform="translate(764 574)" fill="#fff">
      <path d="M 5.499899387359619 34.50009918212891 C 2.742949485778809 34.50009918212891 0.4999995827674866 32.25714874267578 0.4999995827674866 29.50020027160645 L 0.4999995827674866 5.499899387359619 C 0.4999995827674866 2.742949485778809 2.742949485778809 0.4999995827674866 5.499899387359619 0.4999995827674866 L 92.50021362304688 0.4999995827674866 C 95.25716400146484 0.4999995827674866 97.50009918212891 2.742949485778809 97.50009918212891 5.499899387359619 C 97.50009918212891 8.25684928894043 95.25716400146484 10.49979972839355 92.50021362304688 10.49979972839355 L 10.99979972839355 10.49979972839355 L 10.49979972839355 10.49979972839355 L 10.49979972839355 10.99979972839355 L 10.49979972839355 29.50020027160645 C 10.49979972839355 32.25714874267578 8.25684928894043 34.50009918212891 5.499899387359619 34.50009918212891 Z" stroke="none"/>
      <path d="M 5.499902725219727 34.00010299682617 C 7.981156349182129 34.00010299682617 9.999809265136719 31.98144912719727 9.999809265136719 29.50019645690918 L 9.999809265136719 9.999795913696289 L 92.50020599365234 9.999795913696289 C 94.98146057128906 9.999795913696289 97.00009918212891 7.981156349182129 97.00009918212891 5.499902725219727 C 97.00009918212891 3.018649578094482 94.98146057128906 0.9999962449073792 92.50020599365234 0.9999962449073792 L 5.499902725219727 0.9999962449073792 C 3.018649578094482 0.9999962449073792 0.9999962449073792 3.018649578094482 0.9999962449073792 5.499902725219727 L 0.9999962449073792 29.50019645690918 C 0.9999962449073792 31.98144912719727 3.018649578094482 34.00010299682617 5.499902725219727 34.00010299682617 M 5.499902725219727 35.00010299682617 C 2.462396144866943 35.00010299682617 -3.742268972928287e-06 32.53770446777344 -3.742268972928287e-06 29.50019645690918 L -3.742268972928287e-06 5.499902725219727 C -3.742268972928287e-06 2.462396144866943 2.462396144866943 -3.742268972928287e-06 5.499902725219727 -3.742268972928287e-06 L 92.50020599365234 -3.742268972928287e-06 C 95.53770446777344 -3.742268972928287e-06 98.00009918212891 2.462396144866943 98.00009918212891 5.499902725219727 C 98.00009918212891 8.537396430969238 95.53770446777344 10.99979591369629 92.50020599365234 10.99979591369629 L 10.99980926513672 10.99979591369629 L 10.99980926513672 29.50019645690918 C 10.99980926513672 32.53770446777344 8.537396430969238 35.00010299682617 5.499902725219727 35.00010299682617 Z" stroke="none" fill="#707070"/>
    </g>
  </g>
</svg>
