<svg xmlns="http://www.w3.org/2000/svg" width="405" height="103" viewBox="0 0 405 103">
  <defs>
    <style>
      .cls-1 {
        fill: #fff7de;
        stroke: #707070;
      }

      .cls-2 {
        fill: #4c666e;
      }

      .cls-3 {
        stroke: none;
      }

      .cls-4 {
        fill: none;
      }
    </style>
  </defs>
  <g id="グループ_17" data-name="グループ 17" transform="translate(-1318 -579)">
    <g id="長方形_50" data-name="長方形 50" class="cls-1" transform="translate(1318 579)">
      <rect class="cls-3" width="405" height="103" rx="14"/>
      <rect class="cls-4" x="0.5" y="0.5" width="404" height="102" rx="13.5"/>
    </g>
    <path id="パス_2" data-name="パス 2" class="cls-2" d="M1325.976,590.148c1.628,2.843,4.849.465,5.207,3.864s-.341,3.31.839,4.735,3.582.964,7.749.964,2.788,1.425,4.3,0,4.013-4.491,3.579-5.7-6.674-3.864-6.674-3.864,2.253-6.3,0-7.51-2.811,1.7-5.918,1.7-4.506-1.209-5.833,0S1324.348,587.3,1325.976,590.148Z"/>
    <path id="パス_3" data-name="パス 3" class="cls-2" d="M1325.976,590.148c1.628,2.843,4.849.465,5.207,3.864s-.341,3.31.839,4.735,3.582.964,7.749.964,2.788,1.425,4.3,0,4.013-4.491,3.579-5.7-6.674-3.864-6.674-3.864,2.253-6.3,0-7.51-2.811,1.7-5.918,1.7-4.506-1.209-5.833,0S1324.348,587.3,1325.976,590.148Z" transform="translate(-5 14)"/>
    <path id="パス_4" data-name="パス 4" class="cls-2" d="M1334.242,592.437c1.628,2.843-3.417-1.824-3.059,1.575s-.341,3.31.839,4.735,4.1,3.955,6.339,3.288,2.611-5.959,2.611-5.959v-5.928s5.349-17.6,3.1-18.81-8.938,5.893-12.046,5.893-1.474,5.9-2.8,7.108S1332.614,589.593,1334.242,592.437Z" transform="translate(17.139 78)"/>
    <path id="パス_5" data-name="パス 5" class="cls-2" d="M1334.242,592.437c1.628,2.843-3.417-1.824-3.059,1.575s-.341,3.31.839,4.735,4.1,3.955,6.339,3.288,2.611-5.959,2.611-5.959v-5.928s5.349-17.6,3.1-18.81-8.938,5.893-12.046,5.893-1.474,5.9-2.8,7.108S1332.614,589.593,1334.242,592.437Z" transform="matrix(0.454, 0.891, -0.891, 0.454, 1573.776, -861.973)"/>
    <path id="パス_6" data-name="パス 6" class="cls-2" d="M1325.83,587.433c1.062,1.854,3.161.3,3.4,2.519s-.222,2.158.547,3.088,2.336.629,5.053.629,1.818.929,2.8,0,2.617-2.928,2.334-3.716-4.352-2.519-4.352-2.519,1.469-4.108,0-4.9-1.833,1.109-3.859,1.109-2.938-.788-3.8,0S1324.769,585.578,1325.83,587.433Z" transform="translate(353.703 7.26)"/>
    <path id="パス_7" data-name="パス 7" class="cls-2" d="M1334.242,592.437c1.628,2.843-3.417-1.824-3.059,1.575s-.341,3.31.839,4.735,4.1,3.955,6.339,3.288,2.611-5.959,2.611-5.959v-5.928s5.349-17.6,3.1-18.81-8.938,5.893-12.046,5.893-1.474,5.9-2.8,7.108S1332.614,589.593,1334.242,592.437Z" transform="translate(3074.398 1162.266) rotate(177)"/>
    <path id="パス_8" data-name="パス 8" class="cls-2" d="M1325.83,587.433c1.062,1.854,3.161.3,3.4,2.519s-.222,2.158.547,3.088,2.336.629,5.053.629,1.818.929,2.8,0,2.617-2.928,2.334-3.716-4.352-2.519-4.352-2.519,1.469-4.108,0-4.9-1.833,1.109-3.859,1.109-2.938-.788-3.8,0S1324.769,585.578,1325.83,587.433Z" transform="matrix(-0.407, 0.914, -0.914, -0.407, 2776.563, -305.875)"/>
  </g>
</svg>
