<svg xmlns="http://www.w3.org/2000/svg" width="400" height="100" viewBox="0 0 400 100">
  <g id="グループ_17" data-name="グループ 17" transform="translate(-1318 -579)">
    <g id="長方形_50" data-name="長方形 50" transform="translate(1318 579)" fill="#fff7de" stroke="#707070" stroke-width="1">
      <rect width="400" height="100" rx="14" stroke="none"/>
      <rect x="0.5" y="0.5" width="399" height="99" rx="13.5" fill="none"/>
    </g>
    <path id="パス_2" data-name="パス 2" d="M1325.976,590.148c1.628,2.843,4.849.465,5.207,3.864s-.341,3.31.839,4.735,3.582.964,7.749.964,2.788,1.425,4.3,0,4.013-4.491,3.579-5.7-6.674-3.864-6.674-3.864,2.253-6.3,0-7.51-2.811,1.7-5.918,1.7-4.506-1.209-5.833,0S1324.348,587.3,1325.976,590.148Z" fill="#4c666e"/>
    <path id="パス_3" data-name="パス 3" d="M1325.976,590.148c1.628,2.843,4.849.465,5.207,3.864s-.341,3.31.839,4.735,3.582.964,7.749.964,2.788,1.425,4.3,0,4.013-4.491,3.579-5.7-6.674-3.864-6.674-3.864,2.253-6.3,0-7.51-2.811,1.7-5.918,1.7-4.506-1.209-5.833,0S1324.348,587.3,1325.976,590.148Z" transform="translate(-5 13.388)" fill="#4c666e"/>
    <path id="パス_4" data-name="パス 4" d="M1334.242,592.437c1.628,2.843-3.417-1.824-3.059,1.575s-.341,3.31.839,4.735,4.1,3.955,6.339,3.288,2.611-5.959,2.611-5.959v-5.928s5.349-17.6,3.1-18.81-8.938,5.893-12.046,5.893-1.474,5.9-2.8,7.108S1332.614,589.593,1334.242,592.437Z" transform="translate(17.139 75)" fill="#4c666e"/>
    <path id="パス_5" data-name="パス 5" d="M5.253,21.237c1.628,2.843-3.417-1.824-3.059,1.575s-.341,3.31.839,4.735,4.1,3.955,6.339,3.288,2.611-5.959,2.611-5.959V18.948s5.349-17.6,3.1-18.81S6.14,6.032,3.032,6.032s-1.474,5.9-2.8,7.108S3.625,18.394,5.253,21.237Z" transform="matrix(0.454, 0.891, -0.891, 0.454, 1663.182, 581.484)" fill="#4c666e"/>
    <path id="パス_6" data-name="パス 6" d="M1325.83,587.433c1.062,1.854,3.161.3,3.4,2.519s-.222,2.158.547,3.088,2.336.629,5.053.629,1.818.929,2.8,0,2.617-2.928,2.334-3.716-4.352-2.519-4.352-2.519,1.469-4.108,0-4.9-1.833,1.109-3.859,1.109-2.938-.788-3.8,0S1324.769,585.578,1325.83,587.433Z" transform="translate(348.703 7.26)" fill="#4c666e"/>
    <path id="パス_7" data-name="パス 7" d="M5.253,21.237c1.628,2.843-3.417-1.824-3.059,1.575s-.341,3.31.839,4.735,4.1,3.955,6.339,3.288,2.611-5.959,2.611-5.959V18.948s5.349-17.6,3.1-18.81S6.14,6.032,3.032,6.032s-1.474,5.9-2.8,7.108S3.625,18.394,5.253,21.237Z" transform="translate(1712.336 659.235) rotate(177)" fill="#4c666e"/>
    <path id="パス_8" data-name="パス 8" d="M.273,5.089c1.062,1.854,3.161.3,3.4,2.519s-.222,2.158.547,3.088,2.336.629,5.053.629,1.818.929,2.8,0S14.686,8.4,14.4,7.608s-4.352-2.519-4.352-2.519,1.469-4.108,0-4.9S8.219,1.3,6.192,1.3s-2.938-.788-3.8,0S-.788,3.235.273,5.089Z" transform="matrix(-0.407, 0.914, -0.914, -0.407, 1700.412, 665.22)" fill="#4c666e"/>
  </g>
</svg>
