<svg xmlns="http://www.w3.org/2000/svg" width="400" height="100" viewBox="0 0 400 100">
  <g id="グループ_15" data-name="グループ 15" transform="translate(-618 -1289)">
    <g id="長方形_5" data-name="長方形 5" transform="translate(618 1289)" fill="#47125f" stroke="#707070" stroke-width="1">
      <rect width="400" height="100" rx="14" stroke="none"/>
      <rect x="0.5" y="0.5" width="399" height="99" rx="13.5" fill="none"/>
    </g>
    <g id="グループ_12" data-name="グループ 12" transform="translate(745.201 1289)">
      <path id="パス_12" data-name="パス 12" d="M308.074,823h12.663L291.764,843.14s-4.038.46-5.384-1.012,0-4.424,0-4.424Z" transform="translate(-262.681 -821.999)" fill="#2f1414"/>
      <path id="パス_13" data-name="パス 13" d="M308.074,823h12.663L291.764,843.14s-4.038.46-5.384-1.012,0-4.424,0-4.424Z" transform="translate(-180.681 -821.999)" fill="#2f1414"/>
      <path id="パス_14" data-name="パス 14" d="M308.074,823h12.663L291.764,843.14s-4.038.46-5.384-1.012,0-4.424,0-4.424Z" transform="translate(-208.681 -821.999)" fill="#2f1414"/>
      <path id="パス_15" data-name="パス 15" d="M308.074,823h12.663L291.764,843.14s-4.038.46-5.384-1.012,0-4.424,0-4.424Z" transform="translate(-234.681 -821.999)" fill="#2f1414"/>
      <path id="パス_16" data-name="パス 16" d="M300.272,827.976h8.609L291.764,843.14s-4.038.46-5.384-1.012,0-4.424,0-4.424Z" transform="translate(-142.681 -826.976)" fill="#2f1414"/>
      <path id="パス_17" data-name="パス 17" d="M300.272,827.976h8.609L291.764,843.14s-4.038.46-5.384-1.012,0-4.424,0-4.424Z" transform="translate(-285.781 -827.976)" fill="#2f1414"/>
    </g>
  </g>
</svg>
