<svg xmlns="http://www.w3.org/2000/svg" width="404.999" height="103" viewBox="0 0 404.999 103">
  <defs>
    <style>
      .cls-1 {
        fill: #637e2f;
        stroke: #707070;
      }
    </style>
  </defs>
  <path id="中マド_2" data-name="中マド 2" class="cls-1" d="M390.5,102H13.5A13.5,13.5,0,0,1,0,88.5v-75A13.5,13.5,0,0,1,13.5,0h377A13.5,13.5,0,0,1,404,13.5v75A13.5,13.5,0,0,1,390.5,102ZM25.378,89.253h0l5.421,7.1,10.689-.994-7.742-4.069L30.8,85H21.217v-5.45l-5.5-8.364L9.132,64.27,10.914,54.6,4.82,69.244l6.094,3.718,1.85,6.592L9.132,86.092l3.632,7.246,12.614-4.085ZM341.929,3.865l3.187,7.489L355.4,22.012l2.536,7.561,14.524,2.269h15.5L399,41,387.964,22.012H368.117l-4.8-10.659Z" transform="translate(0.5 0.5)"/>
</svg>
