<svg xmlns="http://www.w3.org/2000/svg" width="401" height="101" viewBox="0 0 401 101">
  <path id="中マド_2" data-name="中マド 2" d="M386.5,100H13.5A13.5,13.5,0,0,1,0,86.5v-73A13.5,13.5,0,0,1,13.5,0h373A13.5,13.5,0,0,1,400,13.5v73A13.5,13.5,0,0,1,386.5,100ZM25.127,87.5h0L30.5,94.46l10.582-.975L33.413,89.5,30.5,83.337H21.007V77.994l-5.449-8.2L9.042,63.01l1.764-9.485L4.773,67.887l6.034,3.645,1.831,6.462L9.042,84.4l3.595,7.1L25.126,87.5ZM338.544,3.789l3.155,7.342,10.187,10.45,2.511,7.412,14.38,2.224h15.345L395.046,40.2,384.123,21.581h-19.65l-4.75-10.45Z" transform="translate(0.5 0.5)" fill="#637e2f" stroke="#707070" stroke-width="1"/>
</svg>
