<svg xmlns="http://www.w3.org/2000/svg" width="400" height="100" viewBox="0 0 400 100">
  <g id="グループ_10" data-name="グループ 10" transform="translate(-197 -692)">
    <g id="長方形_2" data-name="長方形 2" transform="translate(197 692)" fill="#ef3434" stroke="#707070" stroke-width="1">
      <rect width="400" height="100" rx="14" stroke="none"/>
      <rect x="0.5" y="0.5" width="399" height="99" rx="13.5" fill="none"/>
    </g>
    <rect id="長方形_39" data-name="長方形 39" width="384" height="85" rx="14" transform="translate(205 700)" fill="#cc2929"/>
    <rect id="長方形_40" data-name="長方形 40" width="351" height="52" rx="14" transform="translate(222 717.412)" fill="#ef3434"/>
    <circle id="楕円形_5" data-name="楕円形 5" cx="5" cy="5" r="5" transform="translate(237 771)" fill="#ffb34b"/>
    <circle id="楕円形_6" data-name="楕円形 6" cx="5" cy="5" r="5" transform="translate(379.658 771)" fill="#ffb34b"/>
    <circle id="楕円形_7" data-name="楕円形 7" cx="5" cy="5" r="5" transform="translate(351.025 771)" fill="#ffb34b"/>
    <circle id="楕円形_8" data-name="楕円形 8" cx="5" cy="5" r="5" transform="translate(322.392 771)" fill="#ffb34b"/>
    <circle id="楕円形_9" data-name="楕円形 9" cx="5" cy="5" r="5" transform="translate(293.759 771)" fill="#ffb34b"/>
    <circle id="楕円形_10" data-name="楕円形 10" cx="5" cy="5" r="5" transform="translate(266 771)" fill="#ffb34b"/>
    <circle id="楕円形_11" data-name="楕円形 11" cx="5" cy="5" r="5" transform="translate(494.19 771)" fill="#ffb34b"/>
    <circle id="楕円形_12" data-name="楕円形 12" cx="5" cy="5" r="5" transform="translate(465.557 771)" fill="#ffb34b"/>
    <circle id="楕円形_13" data-name="楕円形 13" cx="5" cy="5" r="5" transform="translate(436.924 771)" fill="#ffb34b"/>
    <circle id="楕円形_14" data-name="楕円形 14" cx="5" cy="5" r="5" transform="translate(408.291 771)" fill="#ffb34b"/>
    <circle id="楕円形_15" data-name="楕円形 15" cx="5" cy="5" r="5" transform="translate(573 710.387)" fill="#ffb34b"/>
    <circle id="楕円形_16" data-name="楕円形 16" cx="5" cy="5" r="5" transform="translate(574 738.452)" fill="#ffb34b"/>
    <circle id="楕円形_17" data-name="楕円形 17" cx="5" cy="5" r="5" transform="translate(573 766.516)" fill="#ffb34b"/>
    <circle id="楕円形_18" data-name="楕円形 18" cx="5" cy="5" r="5" transform="translate(551 771)" fill="#ffb34b"/>
    <circle id="楕円形_19" data-name="楕円形 19" cx="5" cy="5" r="5" transform="translate(522 771)" fill="#ffb34b"/>
    <circle id="楕円形_20" data-name="楕円形 20" cx="5" cy="5" r="5" transform="translate(238 706)" fill="#ffb34b"/>
    <circle id="楕円形_21" data-name="楕円形 21" cx="5" cy="5" r="5" transform="translate(380.646 706)" fill="#ffb34b"/>
    <circle id="楕円形_22" data-name="楕円形 22" cx="5" cy="5" r="5" transform="translate(352.013 706)" fill="#ffb34b"/>
    <circle id="楕円形_23" data-name="楕円形 23" cx="5" cy="5" r="5" transform="translate(323.38 706)" fill="#ffb34b"/>
    <circle id="楕円形_24" data-name="楕円形 24" cx="5" cy="5" r="5" transform="translate(294.747 706)" fill="#ffb34b"/>
    <circle id="楕円形_25" data-name="楕円形 25" cx="5" cy="5" r="5" transform="translate(267 706)" fill="#ffb34b"/>
    <circle id="楕円形_26" data-name="楕円形 26" cx="5" cy="5" r="5" transform="translate(495.177 706)" fill="#ffb34b"/>
    <circle id="楕円形_27" data-name="楕円形 27" cx="5" cy="5" r="5" transform="translate(466.544 706)" fill="#ffb34b"/>
    <circle id="楕円形_28" data-name="楕円形 28" cx="5" cy="5" r="5" transform="translate(437.911 706)" fill="#ffb34b"/>
    <circle id="楕円形_29" data-name="楕円形 29" cx="5" cy="5" r="5" transform="translate(409.278 706)" fill="#ffb34b"/>
    <circle id="楕円形_30" data-name="楕円形 30" cx="5" cy="5" r="5" transform="translate(552 706)" fill="#ffb34b"/>
    <circle id="楕円形_31" data-name="楕円形 31" cx="5" cy="5" r="5" transform="translate(523 706)" fill="#ffb34b"/>
    <circle id="楕円形_32" data-name="楕円形 32" cx="5" cy="5" r="5" transform="translate(209 709.419)" fill="#ffb34b"/>
    <circle id="楕円形_33" data-name="楕円形 33" cx="5" cy="5" r="5" transform="translate(210 737.484)" fill="#ffb34b"/>
    <circle id="楕円形_34" data-name="楕円形 34" cx="5" cy="5" r="5" transform="translate(209 765.548)" fill="#ffb34b"/>
  </g>
</svg>
