<svg xmlns="http://www.w3.org/2000/svg" width="405" height="103" viewBox="0 0 405 103">
  <defs>
    <style>
      .cls-1, .cls-3 {
        fill: #c92929;
      }

      .cls-2 {
        fill: #961818;
      }

      .cls-4 {
        fill: #ffb34b;
      }

      .cls-5 {
        fill: #1a772a;
        stroke: #707070;
        opacity: 0.564;
      }

      .cls-6, .cls-7 {
        stroke: none;
      }

      .cls-7 {
        fill: #707070;
      }
    </style>
  </defs>
  <g id="グループ_16" data-name="グループ 16" transform="translate(-486 -1450)">
    <g id="パス_11" data-name="パス 11" class="cls-1" transform="translate(486 1450)">
      <path class="cls-6" d="M 391 102.5 L 14 102.5 C 10.39400005340576 102.5 7.003849983215332 101.0957489013672 4.454050064086914 98.54595184326172 C 1.904250025749207 95.99614715576172 0.5 92.60600280761719 0.5 89 L 0.5 14 C 0.5 10.39400005340576 1.904250025749207 7.003849983215332 4.454050064086914 4.454050064086914 C 7.003849983215332 1.904250025749207 10.39400005340576 0.5 14 0.5 L 391 0.5 C 394.6059875488281 0.5 397.9961547851562 1.904250025749207 400.5459594726562 4.454050064086914 C 403.0957641601562 7.003849983215332 404.5 10.39400005340576 404.5 14 L 404.5 89 C 404.5 92.60600280761719 403.0957641601562 95.99614715576172 400.5459594726562 98.54595184326172 C 397.9961547851562 101.0957489013672 394.6059875488281 102.5 391 102.5 Z"/>
      <path class="cls-7" d="M 14 1 C 10.52755737304688 1 7.26300048828125 2.352249145507812 4.807586669921875 4.807601928710938 C 2.352264404296875 7.26300048828125 1 10.52754974365234 1 14 L 1 89 C 1 92.47245025634766 2.352264404296875 95.73699951171875 4.807586669921875 98.19239807128906 C 7.26300048828125 100.6477508544922 10.52755737304688 102 14 102 L 391 102 C 394.4724426269531 102 397.7369995117188 100.6477508544922 400.1924133300781 98.19239807128906 C 402.6477355957031 95.73699951171875 404 92.47245025634766 404 89 L 404 14 C 404 10.52754974365234 402.6477355957031 7.26300048828125 400.1924133300781 4.807601928710938 C 397.7369995117188 2.352249145507812 394.4724426269531 1 391 1 L 14 1 M 14 0 L 391 0 C 398.7319946289062 0 405 6.267997741699219 405 14 L 405 89 C 405 96.73200225830078 398.7319946289062 103 391 103 L 14 103 C 6.26800537109375 103 0 96.73200225830078 0 89 L 0 14 C 0 6.267997741699219 6.26800537109375 0 14 0 Z"/>
    </g>
    <rect id="長方形_39" data-name="長方形 39" class="cls-2" width="389" height="88" rx="14" transform="translate(493 1457)"/>
    <rect id="長方形_40" data-name="長方形 40" class="cls-3" width="356" height="52" rx="14" transform="translate(510 1476)"/>
    <circle id="楕円形_5" data-name="楕円形 5" class="cls-4" cx="5" cy="5" r="5" transform="translate(525 1531)"/>
    <circle id="楕円形_6" data-name="楕円形 6" class="cls-4" cx="5" cy="5" r="5" transform="translate(670 1531)"/>
    <circle id="楕円形_7" data-name="楕円形 7" class="cls-4" cx="5" cy="5" r="5" transform="translate(641 1531)"/>
    <circle id="楕円形_8" data-name="楕円形 8" class="cls-4" cx="5" cy="5" r="5" transform="translate(612 1531)"/>
    <circle id="楕円形_9" data-name="楕円形 9" class="cls-4" cx="5" cy="5" r="5" transform="translate(583 1531)"/>
    <circle id="楕円形_10" data-name="楕円形 10" class="cls-4" cx="5" cy="5" r="5" transform="translate(554 1531)"/>
    <circle id="楕円形_11" data-name="楕円形 11" class="cls-4" cx="5" cy="5" r="5" transform="translate(786 1531)"/>
    <circle id="楕円形_12" data-name="楕円形 12" class="cls-4" cx="5" cy="5" r="5" transform="translate(757 1531)"/>
    <circle id="楕円形_13" data-name="楕円形 13" class="cls-4" cx="5" cy="5" r="5" transform="translate(728 1531)"/>
    <circle id="楕円形_14" data-name="楕円形 14" class="cls-4" cx="5" cy="5" r="5" transform="translate(699 1531)"/>
    <circle id="楕円形_15" data-name="楕円形 15" class="cls-4" cx="5" cy="5" r="5" transform="translate(866 1468)"/>
    <circle id="楕円形_16" data-name="楕円形 16" class="cls-4" cx="5" cy="5" r="5" transform="translate(867 1497)"/>
    <circle id="楕円形_17" data-name="楕円形 17" class="cls-4" cx="5" cy="5" r="5" transform="translate(866 1526)"/>
    <circle id="楕円形_18" data-name="楕円形 18" class="cls-4" cx="5" cy="5" r="5" transform="translate(844 1531)"/>
    <circle id="楕円形_19" data-name="楕円形 19" class="cls-4" cx="5" cy="5" r="5" transform="translate(815 1531)"/>
    <circle id="楕円形_20" data-name="楕円形 20" class="cls-4" cx="5" cy="5" r="5" transform="translate(526 1463)"/>
    <circle id="楕円形_21" data-name="楕円形 21" class="cls-4" cx="5" cy="5" r="5" transform="translate(671 1463)"/>
    <circle id="楕円形_22" data-name="楕円形 22" class="cls-4" cx="5" cy="5" r="5" transform="translate(642 1463)"/>
    <circle id="楕円形_23" data-name="楕円形 23" class="cls-4" cx="5" cy="5" r="5" transform="translate(613 1463)"/>
    <circle id="楕円形_24" data-name="楕円形 24" class="cls-4" cx="5" cy="5" r="5" transform="translate(584 1463)"/>
    <circle id="楕円形_25" data-name="楕円形 25" class="cls-4" cx="5" cy="5" r="5" transform="translate(555 1463)"/>
    <circle id="楕円形_26" data-name="楕円形 26" class="cls-4" cx="5" cy="5" r="5" transform="translate(787 1463)"/>
    <circle id="楕円形_27" data-name="楕円形 27" class="cls-4" cx="5" cy="5" r="5" transform="translate(758 1463)"/>
    <circle id="楕円形_28" data-name="楕円形 28" class="cls-4" cx="5" cy="5" r="5" transform="translate(729 1463)"/>
    <circle id="楕円形_29" data-name="楕円形 29" class="cls-4" cx="5" cy="5" r="5" transform="translate(700 1463)"/>
    <circle id="楕円形_30" data-name="楕円形 30" class="cls-4" cx="5" cy="5" r="5" transform="translate(845 1463)"/>
    <circle id="楕円形_31" data-name="楕円形 31" class="cls-4" cx="5" cy="5" r="5" transform="translate(816 1463)"/>
    <circle id="楕円形_32" data-name="楕円形 32" class="cls-4" cx="5" cy="5" r="5" transform="translate(497 1467)"/>
    <circle id="楕円形_33" data-name="楕円形 33" class="cls-4" cx="5" cy="5" r="5" transform="translate(498 1496)"/>
    <circle id="楕円形_34" data-name="楕円形 34" class="cls-4" cx="5" cy="5" r="5" transform="translate(497 1525)"/>
    <path id="パス_9" data-name="パス 9" class="cls-5" d="M920.583,1556.792s-2.978,24.458,11.565,30.413,29.807-13.777,46.5-7.386,5.928,25.672,20.268,32.949,24.7-10.783,37.093-3.842,4.162,22.479,12.494,31.6,20.834,4.9,20.834,4.9l.012-76.155s-1.284-5.785-4.213-8.891-9.84-3.86-9.84-3.86Z" transform="translate(-179 -106)"/>
    <path id="パス_10" data-name="パス 10" class="cls-5" d="M705,1556.52s-14.139,12.353-16.858,24.856,9.615,13.126,5.983,25.159-16.514,10.085-20.51,22.972,4.525,28.577,4.525,28.577-5.475-.088-8.625-3.66a14.688,14.688,0,0,1-3.319-8.293l.12-74.012s.05-7.237,3.2-11.049,8.946-4.55,8.946-4.55Z" transform="translate(-179.542 -106)"/>
  </g>
</svg>
